<svg xmlns="http://www.w3.org/2000/svg" width="100" height="100" viewBox="0,0,100,100">
  <!-- <path
    d="M0 60 L0 50 C25 50, 25 80, 50 80 C75 80, 75 50, 100 50 L100 60 C80 60, 80 90, 50 90 C20 90, 20
  60, 0 60"
    fill="#34495E"></path> -->
  <path
    d="M0 25 L0 0 C25 0, 25 40, 50 40 C75 40, 75 0, 100 0 L100 25 C80 30, 80 60, 50 60 C20 60, 20 25, 0 25"
    fill="#34495E"></path>
  <path
    d="M0 50 L0 30 C20 30, 20 65, 50 65 C80 65, 80 35, 100 30 L100 50 C90 50, 85 85, 50 85 C15 85, 10 50, 0 50"
    fill="#41B883"></path>
  <!-- <path
    d="M0 20 L0 10 C25 10, 25 30, 50 30 C75 30, 75 10, 100 10 L100 20 C80 20, 80 40, 50 40 C20 40, 20
  20, 0 20"
    fill="#34495E"></path> -->
</svg>